# xmcd CD database file
# Copyright (C) 1996 Ti Kan
#
# Track frame offsets:
# 	150
# 	20058
# 	39690
# 	57983
# 	80770
# 	102523
# 	125130
# 	141000
# 	157768
# 	161955
# 	175893
# 	197803
# 	221403
# 	242665
# 	255583
# 	261333
# 	287200
#
# Disc length: 4112 seconds
#
# Revision: 1
# Processed by: cddbd v1.4b41PL1 Copyright (c) Steve Scherf et al.
# Submitted via: DiscPlay 3.2
#
DISCID=04100e11
DTITLE=Bone thugs~n~harmony - East 1999 Eternal
DYEAR=1900
DGENRE=
TTITLE0=Da Introduction
TTITLE1=East 1999
TTITLE2=Eternal
TTITLE3=Crept And We Came
TTITLE4=Down `71 (The Gateway)
TTITLE5=Mr. Bill Collector
TTITLE6=The Crossroads
TTITLE7=Me Killa
TTITLE8=Land of Tha Heartless
TTITLE9=No Shorts, No Losses
TTITLE10=1st of The Month
TTITLE11=Buddah Lovaz
TTITLE12=Buddah Lovaz
TTITLE13=Die Die Die
TTITLE14=Mr. Ouija 2
TTITLE15=Mo' Murda
TTITLE16=Shotz to Tha Double Glock
EXTD=
EXTT0=
EXTT1=
EXTT2=
EXTT3=
EXTT4=
EXTT5=
EXTT6=D.J. U-Neek's Me Thug Remix
EXTT7=
EXTT8=
EXTT9=
EXTT10=
EXTT11=
EXTT12=
EXTT13=
EXTT14=
EXTT15=
EXTT16=
PLAYORDER=
